<svg width="135" height="24" viewBox="0 0 135 24" fill="none" xmlns="http://www.w3.org/2000/svg">
<g clip-path="url(#clip0_822_13)">
<path fill-rule="evenodd" clip-rule="evenodd" d="M2 6H14L12 12L14 18H2L4 12L2 6V6Z" fill="#0D141C"/>
</g>
<path d="M33.1378 18.5V5.40909H38.3026C39.2955 5.40909 40.1413 5.59872 40.8402 5.97798C41.5391 6.35298 42.0717 6.875 42.4382 7.54403C42.8089 8.20881 42.9943 8.97585 42.9943 9.84517C42.9943 10.7145 42.8068 11.4815 42.4318 12.1463C42.0568 12.8111 41.5135 13.3288 40.8018 13.6996C40.0945 14.0703 39.2379 14.2557 38.2322 14.2557H34.9403V12.0376H37.7848C38.3175 12.0376 38.7564 11.946 39.1016 11.7628C39.451 11.5753 39.7109 11.3175 39.8814 10.9893C40.0561 10.657 40.1435 10.2756 40.1435 9.84517C40.1435 9.41051 40.0561 9.03125 39.8814 8.70739C39.7109 8.37926 39.451 8.12571 39.1016 7.94673C38.7521 7.76349 38.3089 7.67188 37.772 7.67188H35.9055V18.5H33.1378ZM44.7409 18.5V8.68182H47.3809V10.3949H47.4831C47.6621 9.78551 47.9625 9.32528 48.3844 9.0142C48.8063 8.69886 49.2921 8.54119 49.8418 8.54119C49.9782 8.54119 50.1252 8.54972 50.2828 8.56676C50.4405 8.58381 50.579 8.60724 50.6983 8.63707V11.0533C50.5705 11.0149 50.3936 10.9808 50.1678 10.951C49.9419 10.9212 49.7353 10.9062 49.5478 10.9062C49.1472 10.9062 48.7892 10.9936 48.4739 11.1683C48.1628 11.3388 47.9157 11.5774 47.7324 11.8842C47.5534 12.1911 47.464 12.5447 47.464 12.9453V18.5H44.7409ZM56.1236 18.6918C55.1136 18.6918 54.2443 18.4872 53.5156 18.0781C52.7912 17.6648 52.233 17.081 51.8409 16.3267C51.4489 15.5682 51.2528 14.6712 51.2528 13.6357C51.2528 12.6257 51.4489 11.7393 51.8409 10.9766C52.233 10.2138 52.7848 9.61932 53.4964 9.19318C54.2124 8.76705 55.0518 8.55398 56.0149 8.55398C56.6626 8.55398 57.2656 8.65838 57.8239 8.86719C58.3864 9.07173 58.8764 9.38068 59.294 9.79403C59.7159 10.2074 60.044 10.7273 60.2784 11.3537C60.5128 11.9759 60.63 12.7045 60.63 13.5398V14.2876H52.3395V12.6001H58.0668C58.0668 12.2081 57.9815 11.8608 57.8111 11.5582C57.6406 11.2557 57.4041 11.0192 57.1016 10.8487C56.8033 10.674 56.456 10.5866 56.0597 10.5866C55.6463 10.5866 55.2798 10.6825 54.9602 10.8743C54.6449 11.0618 54.3977 11.3153 54.2188 11.6349C54.0398 11.9503 53.9482 12.3018 53.9439 12.6896V14.294C53.9439 14.7798 54.0334 15.1996 54.2124 15.5533C54.3956 15.907 54.6534 16.1797 54.9858 16.3714C55.3182 16.5632 55.7124 16.6591 56.1683 16.6591C56.4709 16.6591 56.7479 16.6165 56.9993 16.5312C57.2507 16.446 57.4659 16.3182 57.6449 16.1477C57.8239 15.9773 57.9602 15.7685 58.054 15.5213L60.5724 15.6875C60.4446 16.2926 60.1825 16.821 59.7862 17.2727C59.3942 17.7202 58.8871 18.0696 58.2649 18.321C57.647 18.5682 56.9332 18.6918 56.1236 18.6918ZM66.0249 18.6598C65.2791 18.6598 64.6037 18.468 63.9986 18.0845C63.3977 17.6967 62.9205 17.1278 62.5668 16.3778C62.2173 15.6236 62.0426 14.6989 62.0426 13.6037C62.0426 12.4787 62.2237 11.5433 62.5859 10.7976C62.9482 10.0476 63.4297 9.48722 64.0305 9.11648C64.6357 8.74148 65.2983 8.55398 66.0185 8.55398C66.5682 8.55398 67.0263 8.64773 67.3928 8.83523C67.7635 9.01847 68.0618 9.24858 68.2876 9.52557C68.5178 9.7983 68.6925 10.0668 68.8118 10.331H68.8949V5.40909H71.6115V18.5H68.9268V16.9276H68.8118C68.6839 17.2003 68.5028 17.4709 68.2685 17.7393C68.0384 18.0036 67.7379 18.223 67.3672 18.3977C67.0007 18.5724 66.5533 18.6598 66.0249 18.6598ZM66.8878 16.4929C67.3267 16.4929 67.6974 16.3736 68 16.1349C68.3068 15.892 68.5412 15.5533 68.7031 15.1186C68.8693 14.6839 68.9524 14.1747 68.9524 13.5909C68.9524 13.0071 68.8714 12.5 68.7095 12.0696C68.5476 11.6392 68.3132 11.3068 68.0064 11.0724C67.6996 10.8381 67.3267 10.7209 66.8878 10.7209C66.4403 10.7209 66.0632 10.8423 65.7564 11.0852C65.4496 11.3281 65.2173 11.6648 65.0597 12.0952C64.902 12.5256 64.8232 13.0241 64.8232 13.5909C64.8232 14.1619 64.902 14.6669 65.0597 15.1058C65.2216 15.5405 65.4538 15.8814 65.7564 16.1286C66.0632 16.3714 66.4403 16.4929 66.8878 16.4929ZM73.8503 18.5V8.68182H76.5733V18.5H73.8503ZM75.2182 7.41619C74.8134 7.41619 74.4661 7.28196 74.1763 7.01349C73.8908 6.74077 73.748 6.41477 73.748 6.03551C73.748 5.66051 73.8908 5.33878 74.1763 5.07031C74.4661 4.79758 74.8134 4.66122 75.2182 4.66122C75.623 4.66122 75.9682 4.79758 76.2537 5.07031C76.5435 5.33878 76.6884 5.66051 76.6884 6.03551C76.6884 6.41477 76.5435 6.74077 76.2537 7.01349C75.9682 7.28196 75.623 7.41619 75.2182 7.41619ZM83.1907 18.6918C82.185 18.6918 81.32 18.4787 80.5955 18.0526C79.8754 17.6222 79.3214 17.0256 78.9336 16.2628C78.5501 15.5 78.3583 14.6222 78.3583 13.6293C78.3583 12.6236 78.5522 11.7415 78.94 10.983C79.332 10.2202 79.8881 9.62571 80.6083 9.19957C81.3285 8.76918 82.185 8.55398 83.1779 8.55398C84.0344 8.55398 84.7844 8.70952 85.4279 9.0206C86.0714 9.33168 86.5806 9.76847 86.9556 10.331C87.3306 10.8935 87.5373 11.554 87.5756 12.3125H85.006C84.9336 11.8224 84.7418 11.4283 84.4308 11.13C84.1239 10.8274 83.7212 10.6761 83.2227 10.6761C82.8008 10.6761 82.4322 10.7912 82.1168 11.0213C81.8058 11.2472 81.5629 11.5774 81.3881 12.0121C81.2134 12.4467 81.1261 12.973 81.1261 13.5909C81.1261 14.2173 81.2113 14.75 81.3817 15.1889C81.5565 15.6278 81.8015 15.9624 82.1168 16.1925C82.4322 16.4226 82.8008 16.5376 83.2227 16.5376C83.5337 16.5376 83.8129 16.4737 84.06 16.3459C84.3114 16.218 84.5181 16.0327 84.68 15.7898C84.8462 15.5426 84.9549 15.2464 85.006 14.9013H87.5756C87.533 15.6513 87.3285 16.3118 86.962 16.8828C86.5998 17.4496 86.0991 17.8928 85.4599 18.2124C84.8207 18.532 84.0643 18.6918 83.1907 18.6918ZM94.5414 8.68182V10.7273H88.6287V8.68182H94.5414ZM89.9711 6.32955H92.6941V15.483C92.6941 15.7344 92.7324 15.9304 92.8091 16.071C92.8858 16.2074 92.9924 16.3033 93.1287 16.3587C93.2694 16.4141 93.4313 16.4418 93.6145 16.4418C93.7424 16.4418 93.8702 16.4311 93.998 16.4098C94.1259 16.3842 94.2239 16.3651 94.2921 16.3523L94.7203 18.3786C94.584 18.4212 94.3922 18.4702 94.1451 18.5256C93.8979 18.5852 93.5975 18.6214 93.2438 18.6342C92.5875 18.6598 92.0123 18.5724 91.5179 18.3722C91.0279 18.1719 90.6465 17.8608 90.3738 17.4389C90.101 17.017 89.9668 16.4844 89.9711 15.8409V6.32955ZM107.527 5.40909V18.5H105.136L99.4409 10.2607H99.345V18.5H96.5772V5.40909H99.0062L104.657 13.642H104.772V5.40909H107.527ZM114.199 18.6918C113.206 18.6918 112.347 18.4808 111.623 18.0589C110.902 17.6328 110.346 17.0405 109.954 16.282C109.562 15.5192 109.366 14.6349 109.366 13.6293C109.366 12.6151 109.562 11.7287 109.954 10.9702C110.346 10.2074 110.902 9.61506 111.623 9.19318C112.347 8.76705 113.206 8.55398 114.199 8.55398C115.191 8.55398 116.048 8.76705 116.768 9.19318C117.493 9.61506 118.051 10.2074 118.443 10.9702C118.835 11.7287 119.031 12.6151 119.031 13.6293C119.031 14.6349 118.835 15.5192 118.443 16.282C118.051 17.0405 117.493 17.6328 116.768 18.0589C116.048 18.4808 115.191 18.6918 114.199 18.6918ZM114.211 16.5824C114.663 16.5824 115.04 16.4545 115.343 16.1989C115.645 15.9389 115.873 15.5852 116.027 15.1378C116.184 14.6903 116.263 14.1811 116.263 13.6101C116.263 13.0391 116.184 12.5298 116.027 12.0824C115.873 11.6349 115.645 11.2812 115.343 11.0213C115.04 10.7614 114.663 10.6314 114.211 10.6314C113.755 10.6314 113.372 10.7614 113.061 11.0213C112.754 11.2812 112.522 11.6349 112.364 12.0824C112.211 12.5298 112.134 13.0391 112.134 13.6101C112.134 14.1811 112.211 14.6903 112.364 15.1378C112.522 15.5852 112.754 15.9389 113.061 16.1989C113.372 16.4545 113.755 16.5824 114.211 16.5824ZM122.492 18.5L119.82 8.68182H122.575L124.097 15.2784H124.186L125.771 8.68182H128.475L130.086 15.2401H130.169L131.665 8.68182H134.413L131.748 18.5H128.865L127.178 12.3253H127.056L125.369 18.5H122.492Z" fill="#0D141C"/>
<defs>
<clipPath id="clip0_822_13">
<rect width="16" height="16" fill="white" transform="translate(0 4)"/>
</clipPath>
</defs>
</svg>
